<svg width="12" height="13" viewBox="0 0 12 13" fill="none" xmlns="http://www.w3.org/2000/svg">
<rect x="0.5" y="1" width="11" height="11" rx="5.5" fill="#E7E7E7"/>
<rect x="0.5" y="1" width="11" height="11" rx="5.5" stroke="#E0E0E0"/>
<g clip-path="url(#clip0_165_146)">
<path d="M5.21777 7.70362C5.36238 7.8879 5.49399 8.08202 5.61166 8.28457C5.71212 8.47506 5.754 8.60423 5.82742 8.83375C5.87245 8.96057 5.91314 8.99841 6.00063 8.99841C6.09597 8.99841 6.13923 8.93403 6.17265 8.83445C6.24205 8.61769 6.29651 8.45227 6.38242 8.29596C6.551 7.99419 6.76048 7.72603 6.96632 7.4683C7.02204 7.39536 7.38231 6.97042 7.5445 6.63512C7.5445 6.63512 7.74385 6.26679 7.74385 5.75239C7.74385 5.27122 7.54726 4.9375 7.54726 4.9375L6.98125 5.08908L6.63751 5.99441L6.55247 6.11924L6.53547 6.14186L6.51285 6.17017L6.47315 6.21539L6.41642 6.27211L6.11033 6.52148L5.34508 6.96333L5.21777 7.70362Z" fill="#363636"/>
<path d="M4.42792 6.57375C4.61469 7.00036 4.97485 7.37537 5.21853 7.70448L6.51282 6.17132C6.51282 6.17132 6.33048 6.40979 5.99972 6.40979C5.63128 6.40979 5.33364 6.11558 5.33364 5.7446C5.33364 5.4902 5.48669 5.31543 5.48669 5.31543L4.60809 5.55085L4.42792 6.57375Z" fill="#363636"/>
<path d="M6.52728 4.0791C6.95714 4.2177 7.32507 4.50867 7.54762 4.93773L6.51322 6.1704C6.51322 6.1704 6.66627 5.99247 6.66627 5.73965C6.66627 5.36003 6.34661 5.07643 6.00128 5.07643C5.67473 5.07643 5.48718 5.31451 5.48718 5.31451V4.53794L6.52728 4.0791Z" fill="#363636"/>
<path d="M4.66504 4.6235C4.92178 4.31632 5.37355 4 5.99639 4C6.29857 4 6.52622 4.07933 6.52622 4.07933L5.48622 5.31493H4.74937L4.66504 4.6235Z" fill="#363636"/>
<path d="M4.42793 6.57301C4.42793 6.57301 4.2561 6.23652 4.2561 5.74906C4.2561 5.28833 4.4352 4.88561 4.66503 4.62305L5.4868 5.31459L4.42793 6.57301Z" fill="#363636"/>
</g>
<defs>
<clipPath id="clip0_165_146">
<rect width="3.48774" height="5" fill="white" transform="translate(4.2561 4)"/>
</clipPath>
</defs>
</svg>
