<svg width="20" height="19" viewBox="0 0 20 19" fill="none" xmlns="http://www.w3.org/2000/svg">
<mask id="path-1-inside-1_1407_862" fill="white">
<path d="M5.17188 5.35205C5.17188 4.79977 5.61959 4.35205 6.17188 4.35205H8.00348C8.55576 4.35205 9.00348 4.79977 9.00348 5.35205V7.18365C9.00348 7.73594 8.55576 8.18365 8.00348 8.18365H6.17187C5.61959 8.18365 5.17188 7.73594 5.17188 7.18365V5.35205Z"/>
</mask>
<path d="M4.17188 5.35205C4.17188 4.24748 5.06731 3.35205 6.17188 3.35205H7.00348C8.10805 3.35205 9.00348 4.24748 9.00348 5.35205C9.00348 5.35205 8.55576 5.35205 8.00348 5.35205H6.17188H4.17188ZM9.00348 8.18365H5.17188H9.00348ZM6.17188 8.18365C5.06731 8.18365 4.17188 7.28822 4.17188 6.18365V5.35205C4.17188 4.24748 5.06731 3.35205 6.17188 3.35205V5.35205V7.18365C6.17188 7.73594 6.17188 8.18365 6.17188 8.18365ZM9.00348 4.35205V8.18365V4.35205Z" fill="#4E4E4E" mask="url(#path-1-inside-1_1407_862)"/>
<mask id="path-3-inside-2_1407_862" fill="white">
<path d="M14.9219 13.9141C14.9219 14.4663 14.4742 14.9141 13.9219 14.9141H12.0903C11.538 14.9141 11.0903 14.4663 11.0903 13.9141V12.0825C11.0903 11.5302 11.538 11.0825 12.0903 11.0825H13.9219C14.4742 11.0825 14.9219 11.5302 14.9219 12.0825V13.9141Z"/>
</mask>
<path d="M15.9219 13.9141C15.9219 15.0186 15.0264 15.9141 13.9219 15.9141H13.0903C11.9857 15.9141 11.0903 15.0186 11.0903 13.9141C11.0903 13.9141 11.538 13.9141 12.0903 13.9141H13.9219H15.9219ZM11.0903 11.0825H14.9219H11.0903ZM13.9219 11.0825C15.0264 11.0825 15.9219 11.9779 15.9219 13.0825V13.9141C15.9219 15.0186 15.0264 15.9141 13.9219 15.9141V13.9141V12.0825C13.9219 11.5302 13.9219 11.0825 13.9219 11.0825ZM11.0903 14.9141V11.0825V14.9141Z" fill="#4E4E4E" mask="url(#path-3-inside-2_1407_862)"/>
<g clip-path="url(#clip0_1407_862)">
<path d="M8.6875 7.875C8.6875 8.2231 8.82578 8.55694 9.07192 8.80308C9.31806 9.04922 9.6519 9.1875 10 9.1875C10.3481 9.1875 10.6819 9.04922 10.9281 8.80308C11.1742 8.55694 11.3125 8.2231 11.3125 7.875C11.3125 7.5269 11.1742 7.19306 10.9281 6.94692C10.6819 6.70078 10.3481 6.5625 10 6.5625C9.6519 6.5625 9.31806 6.70078 9.07192 6.94692C8.82578 7.19306 8.6875 7.5269 8.6875 7.875ZM11.875 11.4375H7.9375C7.88777 11.4375 7.84008 11.4177 7.80492 11.3826C7.76975 11.3474 7.75 11.2997 7.75 11.25V10.6875C7.75 10.4389 7.84877 10.2004 8.02459 10.0246C8.2004 9.84877 8.43886 9.75 8.6875 9.75H11.3125C11.5611 9.75 11.7996 9.84877 11.9754 10.0246C12.1512 10.2004 12.25 10.4389 12.25 10.6875V11.25C12.25 11.2997 12.2302 11.3474 12.1951 11.3826C12.1599 11.4177 12.1122 11.4375 12.0625 11.4375H11.875Z" fill="#4E4E4E"/>
<circle cx="10" cy="8" r="0.5" stroke="#8B8B8B"/>
</g>
<mask id="path-7-inside-3_1407_862" fill="white">
<ellipse cx="1.97913" cy="1.97913" rx="1.97913" ry="1.97913"/>
</mask>
<path d="M1.95827 1.97913C1.95827 1.98032 1.95818 1.9794 1.95866 1.97705C1.95912 1.97481 1.95984 1.9725 1.96073 1.9704C1.9624 1.96645 1.96394 1.96481 1.96438 1.96438C1.96481 1.96394 1.96645 1.96239 1.9704 1.96073C1.9725 1.95984 1.97481 1.95912 1.97705 1.95866C1.9794 1.95818 1.98032 1.95827 1.97913 1.95827V5.95827C4.17675 5.95827 5.95827 4.17675 5.95827 1.97913H1.95827ZM1.97913 1.95827C1.97795 1.95827 1.97887 1.95818 1.98122 1.95866C1.98345 1.95912 1.98577 1.95984 1.98787 1.96073C1.99181 1.96239 1.99345 1.96394 1.99389 1.96438C1.99432 1.96481 1.99587 1.96645 1.99754 1.9704C1.99843 1.9725 1.99915 1.97481 1.99961 1.97705C2.00009 1.9794 2 1.98032 2 1.97913H-2C-2 4.17675 -0.218481 5.95827 1.97913 5.95827V1.95827ZM2 1.97913C2 1.97795 2.00009 1.97887 1.99961 1.98122C1.99915 1.98345 1.99843 1.98577 1.99754 1.98787C1.99587 1.99181 1.99432 1.99345 1.99389 1.99389C1.99345 1.99432 1.99181 1.99587 1.98787 1.99754C1.98577 1.99843 1.98345 1.99915 1.98122 1.99961C1.97887 2.00009 1.97795 2 1.97913 2V-2C-0.218481 -2 -2 -0.218482 -2 1.97913H2ZM1.97913 2C1.98032 2 1.9794 2.00009 1.97705 1.99961C1.97481 1.99915 1.9725 1.99843 1.9704 1.99754C1.96645 1.99587 1.96481 1.99432 1.96438 1.99389C1.96394 1.99345 1.9624 1.99181 1.96073 1.98787C1.95984 1.98577 1.95912 1.98345 1.95866 1.98122C1.95818 1.97887 1.95827 1.97795 1.95827 1.97913H5.95827C5.95827 -0.218482 4.17675 -2 1.97913 -2V2Z" fill="#4E4E4E" mask="url(#path-7-inside-3_1407_862)"/>
<mask id="path-9-inside-4_1407_862" fill="white">
<ellipse cx="1.97913" cy="17.0211" rx="1.97913" ry="1.97913"/>
</mask>
<path d="M1.95827 17.0211C1.95827 17.0223 1.95818 17.0214 1.95866 17.019C1.95912 17.0168 1.95984 17.0145 1.96073 17.0124C1.9624 17.0084 1.96394 17.0068 1.96438 17.0064C1.96481 17.0059 1.96645 17.0044 1.9704 17.0027C1.9725 17.0018 1.97481 17.0011 1.97705 17.0007C1.9794 17.0002 1.98032 17.0003 1.97913 17.0003V21.0003C4.17675 21.0003 5.95827 19.2187 5.95827 17.0211H1.95827ZM1.97913 17.0003C1.97795 17.0003 1.97887 17.0002 1.98122 17.0007C1.98345 17.0011 1.98577 17.0018 1.98787 17.0027C1.99181 17.0044 1.99345 17.0059 1.99389 17.0064C1.99432 17.0068 1.99587 17.0084 1.99754 17.0124C1.99843 17.0145 1.99915 17.0168 1.99961 17.019C2.00009 17.0214 2 17.0223 2 17.0211H-2C-2 19.2187 -0.218481 21.0003 1.97913 21.0003V17.0003ZM2 17.0211C2 17.0199 2.00009 17.0209 1.99961 17.0232C1.99915 17.0254 1.99843 17.0278 1.99754 17.0299C1.99587 17.0338 1.99432 17.0354 1.99389 17.0359C1.99345 17.0363 1.99181 17.0379 1.98787 17.0395C1.98577 17.0404 1.98345 17.0411 1.98122 17.0416C1.97887 17.0421 1.97795 17.042 1.97913 17.042V13.042C-0.218481 13.042 -2 14.8235 -2 17.0211H2ZM1.97913 17.042C1.98032 17.042 1.9794 17.0421 1.97705 17.0416C1.97481 17.0411 1.9725 17.0404 1.9704 17.0395C1.96645 17.0379 1.96481 17.0363 1.96438 17.0359C1.96394 17.0354 1.9624 17.0338 1.96073 17.0299C1.95984 17.0278 1.95912 17.0254 1.95866 17.0232C1.95818 17.0209 1.95827 17.0199 1.95827 17.0211H5.95827C5.95827 14.8235 4.17675 13.042 1.97913 13.042V17.042Z" fill="#4E4E4E" mask="url(#path-9-inside-4_1407_862)"/>
<mask id="path-11-inside-5_1407_862" fill="white">
<ellipse cx="17.9791" cy="1.97913" rx="1.97913" ry="1.97913"/>
</mask>
<path d="M17.9583 1.97913C17.9583 1.98032 17.9582 1.9794 17.9587 1.97705C17.9591 1.97481 17.9598 1.9725 17.9607 1.9704C17.9624 1.96645 17.9639 1.96481 17.9644 1.96438C17.9648 1.96394 17.9665 1.96239 17.9704 1.96073C17.9725 1.95984 17.9748 1.95912 17.977 1.95866C17.9794 1.95818 17.9803 1.95827 17.9791 1.95827V5.95827C20.1767 5.95827 21.9583 4.17675 21.9583 1.97913H17.9583ZM17.9791 1.95827C17.9779 1.95827 17.9789 1.95818 17.9812 1.95866C17.9835 1.95912 17.9858 1.95984 17.9879 1.96073C17.9918 1.96239 17.9935 1.96394 17.9939 1.96438C17.9943 1.96481 17.9959 1.96645 17.9975 1.9704C17.9984 1.9725 17.9991 1.97481 17.9996 1.97705C18.0001 1.9794 18 1.98032 18 1.97913H14C14 4.17675 15.7815 5.95827 17.9791 5.95827V1.95827ZM18 1.97913C18 1.97795 18.0001 1.97887 17.9996 1.98122C17.9991 1.98345 17.9984 1.98577 17.9975 1.98787C17.9959 1.99181 17.9943 1.99345 17.9939 1.99389C17.9935 1.99432 17.9918 1.99587 17.9879 1.99754C17.9858 1.99843 17.9835 1.99915 17.9812 1.99961C17.9789 2.00009 17.9779 2 17.9791 2V-2C15.7815 -2 14 -0.218482 14 1.97913H18ZM17.9791 2C17.9803 2 17.9794 2.00009 17.977 1.99961C17.9748 1.99915 17.9725 1.99843 17.9704 1.99754C17.9665 1.99587 17.9648 1.99432 17.9644 1.99389C17.9639 1.99345 17.9624 1.99181 17.9607 1.98787C17.9598 1.98577 17.9591 1.98345 17.9587 1.98122C17.9582 1.97887 17.9583 1.97795 17.9583 1.97913H21.9583C21.9583 -0.218482 20.1767 -2 17.9791 -2V2Z" fill="#4E4E4E" mask="url(#path-11-inside-5_1407_862)"/>
<mask id="path-13-inside-6_1407_862" fill="white">
<ellipse cx="17.9791" cy="16.9791" rx="1.97913" ry="1.97913"/>
</mask>
<path d="M17.9583 16.9791C17.9583 16.9803 17.9582 16.9794 17.9587 16.977C17.9591 16.9748 17.9598 16.9725 17.9607 16.9704C17.9624 16.9665 17.9639 16.9648 17.9644 16.9644C17.9648 16.9639 17.9665 16.9624 17.9704 16.9607C17.9725 16.9598 17.9748 16.9591 17.977 16.9587C17.9794 16.9582 17.9803 16.9583 17.9791 16.9583V20.9583C20.1767 20.9583 21.9583 19.1767 21.9583 16.9791H17.9583ZM17.9791 16.9583C17.9779 16.9583 17.9789 16.9582 17.9812 16.9587C17.9835 16.9591 17.9858 16.9598 17.9879 16.9607C17.9918 16.9624 17.9935 16.9639 17.9939 16.9644C17.9943 16.9648 17.9959 16.9665 17.9975 16.9704C17.9984 16.9725 17.9991 16.9748 17.9996 16.977C18.0001 16.9794 18 16.9803 18 16.9791H14C14 19.1767 15.7815 20.9583 17.9791 20.9583V16.9583ZM18 16.9791C18 16.9779 18.0001 16.9789 17.9996 16.9812C17.9991 16.9835 17.9984 16.9858 17.9975 16.9879C17.9959 16.9918 17.9943 16.9935 17.9939 16.9939C17.9935 16.9943 17.9918 16.9959 17.9879 16.9975C17.9858 16.9984 17.9835 16.9991 17.9812 16.9996C17.9789 17.0001 17.9779 17 17.9791 17V13C15.7815 13 14 14.7815 14 16.9791H18ZM17.9791 17C17.9803 17 17.9794 17.0001 17.977 16.9996C17.9748 16.9991 17.9725 16.9984 17.9704 16.9975C17.9665 16.9959 17.9648 16.9943 17.9644 16.9939C17.9639 16.9935 17.9624 16.9918 17.9607 16.9879C17.9598 16.9858 17.9591 16.9835 17.9587 16.9812C17.9582 16.9789 17.9583 16.9779 17.9583 16.9791H21.9583C21.9583 14.7815 20.1767 13 17.9791 13V17Z" fill="#4E4E4E" mask="url(#path-13-inside-6_1407_862)"/>
<path d="M2.00781 17.02L2.00781 1.97861" stroke="#8B8B8B" stroke-width="1.6" stroke-linecap="round" stroke-dasharray="2 2"/>
<path d="M3.19531 15.6675L10 8" stroke="#8B8B8B" stroke-width="1.6" stroke-linecap="round" stroke-dasharray="2 2"/>
<path d="M17.8125 17.02L17.8125 1.97861" stroke="#8B8B8B" stroke-width="1.6" stroke-linecap="round" stroke-dasharray="2 2"/>
<path d="M16.4531 2.56836L10.1666 8.20113" stroke="#8B8B8B" stroke-width="1.6" stroke-linecap="square" stroke-dasharray="2 2"/>
<defs>
<clipPath id="clip0_1407_862">
<rect width="6" height="6" fill="white" transform="translate(7 6)"/>
</clipPath>
</defs>
</svg>
