<svg width="375" height="167" viewBox="0 0 375 167" fill="none" xmlns="http://www.w3.org/2000/svg">
<rect x="20" y="11" width="335" height="156" rx="5" fill="#F0F0F0"/>
<g clip-path="url(#clip0_235_714)">
<path d="M93.4778 79.4758L93.4778 70.7202L96.7707 67.2242H98.2614L101.554 70.7202L101.554 79.4758H93.4778ZM96.661 71.0405C96.8878 71.2812 97.1953 71.4165 97.5161 71.4165C97.8368 71.4165 98.1443 71.2812 98.3711 71.0405C98.5979 70.7997 98.7253 70.4732 98.7253 70.1327C98.7253 69.7922 98.5979 69.4656 98.3711 69.2249C98.1443 68.9841 97.8368 68.8488 97.5161 68.8488C97.1953 68.8488 96.8878 68.9841 96.661 69.2249C96.4342 69.4656 96.3068 69.7922 96.3068 70.1327C96.3068 70.4732 96.4342 70.7997 96.661 71.0405Z" fill="#E7E7E7" stroke="#A0968D" stroke-width="0.6"/>
</g>
<g clip-path="url(#clip1_235_714)">
<path d="M140.667 65.3327L137.083 61.4357C136.876 61.2078 136.715 60.9212 136.601 60.5758C136.486 60.2303 136.428 59.8624 136.428 59.472V49.6751C136.428 49.1874 136.539 48.7723 136.762 48.4298C136.984 48.0873 137.253 47.916 137.569 47.916H143.764C144.08 47.916 144.349 48.0873 144.572 48.4298C144.794 48.7723 144.905 49.1874 144.905 49.6751V59.472C144.905 59.8762 144.843 60.2477 144.719 60.5866C144.595 60.9248 144.43 61.2078 144.224 61.4357L140.667 65.3327Z" fill="#8B8B8B"/>
</g>
<path fill-rule="evenodd" clip-rule="evenodd" d="M44.1233 70C46.0896 70 47.6421 68.6997 48.2267 67H332.95C333.534 68.6997 335.087 70 337.053 70C339.569 70 341.408 67.8708 341.408 65.5C341.408 63.1292 339.569 61 337.053 61C334.715 61 332.962 62.838 332.726 65H48.4507C48.2139 62.838 46.4611 61 44.1233 61C41.6072 61 39.7686 63.1292 39.7686 65.5C39.7686 67.8708 41.6072 70 44.1233 70ZM334.698 65.5C334.698 66.8807 335.752 68 337.053 68C338.353 68 339.408 66.8807 339.408 65.5C339.408 64.1193 338.353 63 337.053 63C335.752 63 334.698 64.1193 334.698 65.5ZM44.1233 68C45.4238 68 46.4781 66.8807 46.4781 65.5C46.4781 64.1193 45.4238 63 44.1233 63C42.8228 63 41.7686 64.1193 41.7686 65.5C41.7686 66.8807 42.8228 68 44.1233 68Z" fill="#8B8B8B"/>
<path d="M38.558 80.679C38.558 79.647 38.726 78.843 39.062 78.267C39.398 77.685 39.986 77.394 40.826 77.394C41.66 77.394 42.245 77.685 42.581 78.267C42.917 78.843 43.085 79.647 43.085 80.679C43.085 81.729 42.917 82.545 42.581 83.127C42.245 83.709 41.66 84 40.826 84C39.986 84 39.398 83.709 39.062 83.127C38.726 82.545 38.558 81.729 38.558 80.679ZM42.275 80.679C42.275 80.157 42.239 79.716 42.167 79.356C42.101 78.99 41.96 78.696 41.744 78.474C41.534 78.252 41.228 78.141 40.826 78.141C40.418 78.141 40.106 78.252 39.89 78.474C39.68 78.696 39.539 78.99 39.467 79.356C39.401 79.716 39.368 80.157 39.368 80.679C39.368 81.219 39.401 81.672 39.467 82.038C39.539 82.404 39.68 82.698 39.89 82.92C40.106 83.142 40.418 83.253 40.826 83.253C41.228 83.253 41.534 83.142 41.744 82.92C41.96 82.698 42.101 82.404 42.167 82.038C42.239 81.672 42.275 81.219 42.275 80.679ZM44.4794 80.679C44.4794 79.647 44.6474 78.843 44.9834 78.267C45.3194 77.685 45.9074 77.394 46.7474 77.394C47.5814 77.394 48.1664 77.685 48.5024 78.267C48.8384 78.843 49.0064 79.647 49.0064 80.679C49.0064 81.729 48.8384 82.545 48.5024 83.127C48.1664 83.709 47.5814 84 46.7474 84C45.9074 84 45.3194 83.709 44.9834 83.127C44.6474 82.545 44.4794 81.729 44.4794 80.679ZM48.1964 80.679C48.1964 80.157 48.1604 79.716 48.0884 79.356C48.0224 78.99 47.8814 78.696 47.6654 78.474C47.4554 78.252 47.1494 78.141 46.7474 78.141C46.3394 78.141 46.0274 78.252 45.8114 78.474C45.6014 78.696 45.4604 78.99 45.3884 79.356C45.3224 79.716 45.2894 80.157 45.2894 80.679C45.2894 81.219 45.3224 81.672 45.3884 82.038C45.4604 82.404 45.6014 82.698 45.8114 82.92C46.0274 83.142 46.3394 83.253 46.7474 83.253C47.1494 83.253 47.4554 83.142 47.6654 82.92C47.8814 82.698 48.0224 82.404 48.0884 82.038C48.1604 81.672 48.1964 81.219 48.1964 80.679ZM50.7967 84.054C50.6407 84.054 50.5087 84 50.4007 83.892C50.2927 83.784 50.2387 83.652 50.2387 83.496C50.2387 83.34 50.2927 83.208 50.4007 83.1C50.5087 82.992 50.6407 82.938 50.7967 82.938C50.9467 82.938 51.0727 82.992 51.1747 83.1C51.2827 83.208 51.3367 83.34 51.3367 83.496C51.3367 83.652 51.2827 83.784 51.1747 83.892C51.0727 84 50.9467 84.054 50.7967 84.054ZM50.7967 80.202C50.6407 80.202 50.5087 80.148 50.4007 80.04C50.2927 79.932 50.2387 79.8 50.2387 79.644C50.2387 79.488 50.2927 79.356 50.4007 79.248C50.5087 79.14 50.6407 79.086 50.7967 79.086C50.9467 79.086 51.0727 79.14 51.1747 79.248C51.2827 79.356 51.3367 79.488 51.3367 79.644C51.3367 79.8 51.2827 79.932 51.1747 80.04C51.0727 80.148 50.9467 80.202 50.7967 80.202ZM52.5868 80.679C52.5868 79.647 52.7548 78.843 53.0908 78.267C53.4268 77.685 54.0148 77.394 54.8548 77.394C55.6888 77.394 56.2738 77.685 56.6098 78.267C56.9458 78.843 57.1138 79.647 57.1138 80.679C57.1138 81.729 56.9458 82.545 56.6098 83.127C56.2738 83.709 55.6888 84 54.8548 84C54.0148 84 53.4268 83.709 53.0908 83.127C52.7548 82.545 52.5868 81.729 52.5868 80.679ZM56.3038 80.679C56.3038 80.157 56.2678 79.716 56.1958 79.356C56.1298 78.99 55.9888 78.696 55.7728 78.474C55.5628 78.252 55.2568 78.141 54.8548 78.141C54.4468 78.141 54.1348 78.252 53.9188 78.474C53.7088 78.696 53.5678 78.99 53.4958 79.356C53.4298 79.716 53.3968 80.157 53.3968 80.679C53.3968 81.219 53.4298 81.672 53.4958 82.038C53.5678 82.404 53.7088 82.698 53.9188 82.92C54.1348 83.142 54.4468 83.253 54.8548 83.253C55.2568 83.253 55.5628 83.142 55.7728 82.92C55.9888 82.698 56.1298 82.404 56.1958 82.038C56.2678 81.672 56.3038 81.219 56.3038 80.679ZM58.5081 80.679C58.5081 79.647 58.6761 78.843 59.0121 78.267C59.3481 77.685 59.9361 77.394 60.7761 77.394C61.6101 77.394 62.1951 77.685 62.5311 78.267C62.8671 78.843 63.0351 79.647 63.0351 80.679C63.0351 81.729 62.8671 82.545 62.5311 83.127C62.1951 83.709 61.6101 84 60.7761 84C59.9361 84 59.3481 83.709 59.0121 83.127C58.6761 82.545 58.5081 81.729 58.5081 80.679ZM62.2251 80.679C62.2251 80.157 62.1891 79.716 62.1171 79.356C62.0511 78.99 61.9101 78.696 61.6941 78.474C61.4841 78.252 61.1781 78.141 60.7761 78.141C60.3681 78.141 60.0561 78.252 59.8401 78.474C59.6301 78.696 59.4891 78.99 59.4171 79.356C59.3511 79.716 59.3181 80.157 59.3181 80.679C59.3181 81.219 59.3511 81.672 59.4171 82.038C59.4891 82.404 59.6301 82.698 59.8401 82.92C60.0561 83.142 60.3681 83.253 60.7761 83.253C61.1781 83.253 61.4841 83.142 61.6941 82.92C61.9101 82.698 62.0511 82.404 62.1171 82.038C62.1891 81.672 62.2251 81.219 62.2251 80.679Z" fill="#8B8B8B"/>
<path opacity="0.9" d="M129.922 36.679C129.922 35.647 130.09 34.843 130.426 34.267C130.762 33.685 131.35 33.394 132.19 33.394C133.024 33.394 133.609 33.685 133.945 34.267C134.281 34.843 134.449 35.647 134.449 36.679C134.449 37.729 134.281 38.545 133.945 39.127C133.609 39.709 133.024 40 132.19 40C131.35 40 130.762 39.709 130.426 39.127C130.09 38.545 129.922 37.729 129.922 36.679ZM133.639 36.679C133.639 36.157 133.603 35.716 133.531 35.356C133.465 34.99 133.324 34.696 133.108 34.474C132.898 34.252 132.592 34.141 132.19 34.141C131.782 34.141 131.47 34.252 131.254 34.474C131.044 34.696 130.903 34.99 130.831 35.356C130.765 35.716 130.732 36.157 130.732 36.679C130.732 37.219 130.765 37.672 130.831 38.038C130.903 38.404 131.044 38.698 131.254 38.92C131.47 39.142 131.782 39.253 132.19 39.253C132.592 39.253 132.898 39.142 133.108 38.92C133.324 38.698 133.465 38.404 133.531 38.038C133.603 37.672 133.639 37.219 133.639 36.679ZM135.627 34.24V33.493H137.319V40H136.491V34.24H135.627ZM139.392 40.054C139.236 40.054 139.104 40 138.996 39.892C138.888 39.784 138.834 39.652 138.834 39.496C138.834 39.34 138.888 39.208 138.996 39.1C139.104 38.992 139.236 38.938 139.392 38.938C139.542 38.938 139.668 38.992 139.77 39.1C139.878 39.208 139.932 39.34 139.932 39.496C139.932 39.652 139.878 39.784 139.77 39.892C139.668 40 139.542 40.054 139.392 40.054ZM139.392 36.202C139.236 36.202 139.104 36.148 138.996 36.04C138.888 35.932 138.834 35.8 138.834 35.644C138.834 35.488 138.888 35.356 138.996 35.248C139.104 35.14 139.236 35.086 139.392 35.086C139.542 35.086 139.668 35.14 139.77 35.248C139.878 35.356 139.932 35.488 139.932 35.644C139.932 35.8 139.878 35.932 139.77 36.04C139.668 36.148 139.542 36.202 139.392 36.202ZM141.182 36.679C141.182 35.647 141.35 34.843 141.686 34.267C142.022 33.685 142.61 33.394 143.45 33.394C144.284 33.394 144.869 33.685 145.205 34.267C145.541 34.843 145.709 35.647 145.709 36.679C145.709 37.729 145.541 38.545 145.205 39.127C144.869 39.709 144.284 40 143.45 40C142.61 40 142.022 39.709 141.686 39.127C141.35 38.545 141.182 37.729 141.182 36.679ZM144.899 36.679C144.899 36.157 144.863 35.716 144.791 35.356C144.725 34.99 144.584 34.696 144.368 34.474C144.158 34.252 143.852 34.141 143.45 34.141C143.042 34.141 142.73 34.252 142.514 34.474C142.304 34.696 142.163 34.99 142.091 35.356C142.025 35.716 141.992 36.157 141.992 36.679C141.992 37.219 142.025 37.672 142.091 38.038C142.163 38.404 142.304 38.698 142.514 38.92C142.73 39.142 143.042 39.253 143.45 39.253C143.852 39.253 144.158 39.142 144.368 38.92C144.584 38.698 144.725 38.404 144.791 38.038C144.863 37.672 144.899 37.219 144.899 36.679ZM148.156 38.254C148.216 38.596 148.354 38.86 148.57 39.046C148.792 39.232 149.089 39.325 149.461 39.325C149.959 39.325 150.325 39.13 150.559 38.74C150.799 38.35 150.913 37.693 150.901 36.769C150.775 37.039 150.565 37.252 150.271 37.408C149.977 37.558 149.65 37.633 149.29 37.633C148.888 37.633 148.528 37.552 148.21 37.39C147.898 37.222 147.652 36.979 147.472 36.661C147.292 36.343 147.202 35.959 147.202 35.509C147.202 34.867 147.388 34.351 147.76 33.961C148.132 33.565 148.66 33.367 149.344 33.367C150.184 33.367 150.772 33.64 151.108 34.186C151.45 34.732 151.621 35.545 151.621 36.625C151.621 37.381 151.552 38.005 151.414 38.497C151.282 38.989 151.054 39.364 150.73 39.622C150.412 39.88 149.974 40.009 149.416 40.009C148.804 40.009 148.327 39.844 147.985 39.514C147.643 39.184 147.448 38.764 147.4 38.254H148.156ZM149.425 36.94C149.827 36.94 150.157 36.817 150.415 36.571C150.673 36.319 150.802 35.98 150.802 35.554C150.802 35.104 150.676 34.741 150.424 34.465C150.172 34.189 149.818 34.051 149.362 34.051C148.942 34.051 148.606 34.183 148.354 34.447C148.108 34.711 147.985 35.059 147.985 35.491C147.985 35.929 148.108 36.28 148.354 36.544C148.6 36.808 148.957 36.94 149.425 36.94Z" fill="#8B8B8B"/>
<path opacity="0.9" d="M98.3897 77.07H96.5657L96.2297 78H95.6537L97.1657 73.842H97.7957L99.3017 78H98.7257L98.3897 77.07ZM98.2337 76.626L97.4777 74.514L96.7217 76.626H98.2337Z" fill="#8D0515"/>
<path d="M322.069 80.679C322.069 79.647 322.237 78.843 322.573 78.267C322.909 77.685 323.497 77.394 324.337 77.394C325.171 77.394 325.756 77.685 326.092 78.267C326.428 78.843 326.596 79.647 326.596 80.679C326.596 81.729 326.428 82.545 326.092 83.127C325.756 83.709 325.171 84 324.337 84C323.497 84 322.909 83.709 322.573 83.127C322.237 82.545 322.069 81.729 322.069 80.679ZM325.786 80.679C325.786 80.157 325.75 79.716 325.678 79.356C325.612 78.99 325.471 78.696 325.255 78.474C325.045 78.252 324.739 78.141 324.337 78.141C323.929 78.141 323.617 78.252 323.401 78.474C323.191 78.696 323.05 78.99 322.978 79.356C322.912 79.716 322.879 80.157 322.879 80.679C322.879 81.219 322.912 81.672 322.978 82.038C323.05 82.404 323.191 82.698 323.401 82.92C323.617 83.142 323.929 83.253 324.337 83.253C324.739 83.253 325.045 83.142 325.255 82.92C325.471 82.698 325.612 82.404 325.678 82.038C325.75 81.672 325.786 81.219 325.786 80.679ZM327.99 80.679C327.99 79.647 328.158 78.843 328.494 78.267C328.83 77.685 329.418 77.394 330.258 77.394C331.092 77.394 331.677 77.685 332.013 78.267C332.349 78.843 332.517 79.647 332.517 80.679C332.517 81.729 332.349 82.545 332.013 83.127C331.677 83.709 331.092 84 330.258 84C329.418 84 328.83 83.709 328.494 83.127C328.158 82.545 327.99 81.729 327.99 80.679ZM331.707 80.679C331.707 80.157 331.671 79.716 331.599 79.356C331.533 78.99 331.392 78.696 331.176 78.474C330.966 78.252 330.66 78.141 330.258 78.141C329.85 78.141 329.538 78.252 329.322 78.474C329.112 78.696 328.971 78.99 328.899 79.356C328.833 79.716 328.8 80.157 328.8 80.679C328.8 81.219 328.833 81.672 328.899 82.038C328.971 82.404 329.112 82.698 329.322 82.92C329.538 83.142 329.85 83.253 330.258 83.253C330.66 83.253 330.966 83.142 331.176 82.92C331.392 82.698 331.533 82.404 331.599 82.038C331.671 81.672 331.707 81.219 331.707 80.679ZM334.307 84.054C334.151 84.054 334.019 84 333.911 83.892C333.803 83.784 333.749 83.652 333.749 83.496C333.749 83.34 333.803 83.208 333.911 83.1C334.019 82.992 334.151 82.938 334.307 82.938C334.457 82.938 334.583 82.992 334.685 83.1C334.793 83.208 334.847 83.34 334.847 83.496C334.847 83.652 334.793 83.784 334.685 83.892C334.583 84 334.457 84.054 334.307 84.054ZM334.307 80.202C334.151 80.202 334.019 80.148 333.911 80.04C333.803 79.932 333.749 79.8 333.749 79.644C333.749 79.488 333.803 79.356 333.911 79.248C334.019 79.14 334.151 79.086 334.307 79.086C334.457 79.086 334.583 79.14 334.685 79.248C334.793 79.356 334.847 79.488 334.847 79.644C334.847 79.8 334.793 79.932 334.685 80.04C334.583 80.148 334.457 80.202 334.307 80.202ZM336.097 80.679C336.097 79.647 336.265 78.843 336.601 78.267C336.937 77.685 337.525 77.394 338.365 77.394C339.199 77.394 339.784 77.685 340.12 78.267C340.456 78.843 340.624 79.647 340.624 80.679C340.624 81.729 340.456 82.545 340.12 83.127C339.784 83.709 339.199 84 338.365 84C337.525 84 336.937 83.709 336.601 83.127C336.265 82.545 336.097 81.729 336.097 80.679ZM339.814 80.679C339.814 80.157 339.778 79.716 339.706 79.356C339.64 78.99 339.499 78.696 339.283 78.474C339.073 78.252 338.767 78.141 338.365 78.141C337.957 78.141 337.645 78.252 337.429 78.474C337.219 78.696 337.078 78.99 337.006 79.356C336.94 79.716 336.907 80.157 336.907 80.679C336.907 81.219 336.94 81.672 337.006 82.038C337.078 82.404 337.219 82.698 337.429 82.92C337.645 83.142 337.957 83.253 338.365 83.253C338.767 83.253 339.073 83.142 339.283 82.92C339.499 82.698 339.64 82.404 339.706 82.038C339.778 81.672 339.814 81.219 339.814 80.679ZM342.019 80.679C342.019 79.647 342.187 78.843 342.523 78.267C342.859 77.685 343.447 77.394 344.287 77.394C345.121 77.394 345.706 77.685 346.042 78.267C346.378 78.843 346.546 79.647 346.546 80.679C346.546 81.729 346.378 82.545 346.042 83.127C345.706 83.709 345.121 84 344.287 84C343.447 84 342.859 83.709 342.523 83.127C342.187 82.545 342.019 81.729 342.019 80.679ZM345.736 80.679C345.736 80.157 345.7 79.716 345.628 79.356C345.562 78.99 345.421 78.696 345.205 78.474C344.995 78.252 344.689 78.141 344.287 78.141C343.879 78.141 343.567 78.252 343.351 78.474C343.141 78.696 343 78.99 342.928 79.356C342.862 79.716 342.829 80.157 342.829 80.679C342.829 81.219 342.862 81.672 342.928 82.038C343 82.404 343.141 82.698 343.351 82.92C343.567 83.142 343.879 83.253 344.287 83.253C344.689 83.253 344.995 83.142 345.205 82.92C345.421 82.698 345.562 82.404 345.628 82.038C345.7 81.672 345.736 81.219 345.736 80.679Z" fill="#8B8B8B"/>
<ellipse cx="97.3394" cy="65" rx="1.88379" ry="2" fill="#8D0515"/>
<ellipse cx="175.517" cy="66" rx="1.88379" ry="2" fill="#8D0515"/>
<ellipse cx="192.471" cy="66" rx="1.88379" ry="2" fill="#F8BD00"/>
<ellipse cx="209.425" cy="66" rx="1.88379" ry="2" fill="#0ABF53"/>
<rect x="152.5" y="107.5" width="71" height="24" rx="2.5" fill="#F5F5F5"/>
<rect x="152.5" y="107.5" width="71" height="24" rx="2.5" stroke="#DBDBDB"/>
<path d="M167.887 116.834V121.941M170.44 119.387H165.333" stroke="#363636" stroke-linecap="square" stroke-linejoin="round"/>
<path d="M180.479 121.069H178.533L178.211 122H177.182L178.939 117.107H180.08L181.837 122H180.801L180.479 121.069ZM180.213 120.285L179.506 118.241L178.799 120.285H180.213ZM182.452 120.047C182.452 119.655 182.529 119.307 182.683 119.004C182.841 118.701 183.056 118.467 183.327 118.304C183.597 118.141 183.898 118.059 184.23 118.059C184.482 118.059 184.722 118.115 184.951 118.227C185.179 118.334 185.361 118.479 185.497 118.661V116.82H186.491V122H185.497V121.426C185.375 121.617 185.205 121.771 184.986 121.888C184.766 122.005 184.512 122.063 184.223 122.063C183.896 122.063 183.597 121.979 183.327 121.811C183.056 121.643 182.841 121.407 182.683 121.104C182.529 120.796 182.452 120.444 182.452 120.047ZM185.504 120.061C185.504 119.823 185.457 119.62 185.364 119.452C185.27 119.279 185.144 119.149 184.986 119.06C184.827 118.967 184.657 118.92 184.475 118.92C184.293 118.92 184.125 118.964 183.971 119.053C183.817 119.142 183.691 119.272 183.593 119.445C183.499 119.613 183.453 119.814 183.453 120.047C183.453 120.28 183.499 120.486 183.593 120.663C183.691 120.836 183.817 120.969 183.971 121.062C184.129 121.155 184.297 121.202 184.475 121.202C184.657 121.202 184.827 121.158 184.986 121.069C185.144 120.976 185.27 120.845 185.364 120.677C185.457 120.504 185.504 120.299 185.504 120.061ZM187.406 120.047C187.406 119.655 187.483 119.307 187.637 119.004C187.796 118.701 188.01 118.467 188.281 118.304C188.552 118.141 188.853 118.059 189.184 118.059C189.436 118.059 189.676 118.115 189.905 118.227C190.134 118.334 190.316 118.479 190.451 118.661V116.82H191.445V122H190.451V121.426C190.33 121.617 190.159 121.771 189.94 121.888C189.721 122.005 189.466 122.063 189.177 122.063C188.85 122.063 188.552 121.979 188.281 121.811C188.01 121.643 187.796 121.407 187.637 121.104C187.483 120.796 187.406 120.444 187.406 120.047ZM190.458 120.061C190.458 119.823 190.411 119.62 190.318 119.452C190.225 119.279 190.099 119.149 189.94 119.06C189.781 118.967 189.611 118.92 189.429 118.92C189.247 118.92 189.079 118.964 188.925 119.053C188.771 119.142 188.645 119.272 188.547 119.445C188.454 119.613 188.407 119.814 188.407 120.047C188.407 120.28 188.454 120.486 188.547 120.663C188.645 120.836 188.771 120.969 188.925 121.062C189.084 121.155 189.252 121.202 189.429 121.202C189.611 121.202 189.781 121.158 189.94 121.069C190.099 120.976 190.225 120.845 190.318 120.677C190.411 120.504 190.458 120.299 190.458 120.061ZM197.486 121.069H195.54L195.218 122H194.189L195.946 117.107H197.087L198.844 122H197.808L197.486 121.069ZM197.22 120.285L196.513 118.241L195.806 120.285H197.22ZM200.691 116.82V122H199.711V116.82H200.691ZM205.474 119.977C205.474 120.117 205.465 120.243 205.446 120.355H202.611C202.634 120.635 202.732 120.854 202.905 121.013C203.078 121.172 203.29 121.251 203.542 121.251C203.906 121.251 204.165 121.095 204.319 120.782H205.376C205.264 121.155 205.049 121.463 204.732 121.706C204.415 121.944 204.025 122.063 203.563 122.063C203.19 122.063 202.854 121.981 202.555 121.818C202.261 121.65 202.03 121.414 201.862 121.111C201.699 120.808 201.617 120.458 201.617 120.061C201.617 119.66 201.699 119.307 201.862 119.004C202.025 118.701 202.254 118.467 202.548 118.304C202.842 118.141 203.18 118.059 203.563 118.059C203.932 118.059 204.261 118.138 204.55 118.297C204.844 118.456 205.07 118.682 205.229 118.976C205.392 119.265 205.474 119.599 205.474 119.977ZM204.459 119.697C204.454 119.445 204.363 119.244 204.186 119.095C204.009 118.941 203.792 118.864 203.535 118.864C203.292 118.864 203.087 118.939 202.919 119.088C202.756 119.233 202.655 119.436 202.618 119.697H204.459ZM207.379 118.724C207.505 118.519 207.669 118.358 207.869 118.241C208.075 118.124 208.308 118.066 208.569 118.066V119.095H208.31C208.002 119.095 207.769 119.167 207.61 119.312C207.456 119.457 207.379 119.709 207.379 120.068V122H206.399V118.122H207.379V118.724ZM210.58 118.927V120.803C210.58 120.934 210.611 121.029 210.671 121.09C210.737 121.146 210.844 121.174 210.993 121.174H211.448V122H210.832C210.006 122 209.593 121.599 209.593 120.796V118.927H209.131V118.122H209.593V117.163H210.58V118.122H211.448V118.927H210.58Z" fill="#363636"/>
<defs>
<clipPath id="clip0_235_714">
<rect width="12.628" height="12.628" fill="white" transform="matrix(0.685642 0.727939 -0.685642 0.727939 97.5161 65.9961)"/>
</clipPath>
<clipPath id="clip1_235_714">
<rect width="22" height="16.9541" fill="white" transform="matrix(0 1 -1 0 149.144 47)"/>
</clipPath>
</defs>
</svg>
