<svg width="20" height="20" viewBox="0 0 20 20" fill="none" xmlns="http://www.w3.org/2000/svg">
<rect width="20" height="20" rx="10" fill="#E4E4E4"/>
<path d="M13 9.25V13.5625C13 13.6856 12.9758 13.8075 12.9286 13.9213C12.8815 14.035 12.8125 14.1384 12.7254 14.2254C12.6384 14.3125 12.535 14.3815 12.4213 14.4286C12.3075 14.4758 12.1856 14.5 12.0625 14.5H6.4375C6.18886 14.5 5.9504 14.4012 5.77459 14.2254C5.59877 14.0496 5.5 13.8111 5.5 13.5625V7.9375C5.5 7.68886 5.59877 7.4504 5.77459 7.27459C5.9504 7.09877 6.18886 7 6.4375 7H10.3628M11.875 5.5H14.5V8.125M9.25 10.75L14.3125 5.6875" stroke="#363636" stroke-linecap="round" stroke-linejoin="round"/>
</svg>
