<svg width="14" height="14" viewBox="0 0 14 14" fill="none" xmlns="http://www.w3.org/2000/svg">
<path d="M11.9794 11.9787C12.8334 11.1235 12.8334 9.74918 12.8334 6.99935C12.8334 6.64877 12.8334 6.31977 12.8316 6.01235C12.5924 6.24685 12.3054 6.49535 11.998 6.76135L10.5467 8.02018C10.3694 8.17418 10.1704 8.34685 9.99077 8.46235C9.8146 8.57552 9.3666 8.82518 8.84919 8.58893C8.33177 8.35268 8.22735 7.85043 8.1976 7.64393C8.16669 7.43685 8.16669 7.18135 8.16669 6.95093C7.39085 7.0851 6.65235 7.39077 6.10927 7.81427L6.0801 7.8376C5.86544 8.0056 5.6601 8.1666 5.49444 8.27393C5.38155 8.34979 5.25967 8.41132 5.1316 8.4571C4.99452 8.50377 4.65502 8.58835 4.30502 8.38302C4.1877 8.31306 4.08607 8.21966 4.00648 8.10865C3.92689 7.99764 3.87105 7.87141 3.84244 7.73785C3.81448 7.60445 3.80506 7.46783 3.81444 7.33185C3.82435 7.14868 3.8611 6.91418 3.8961 6.68435L3.90194 6.64702C4.17902 4.85618 4.95894 3.63352 5.97277 2.8711C6.61857 2.39045 7.3711 2.07322 8.1661 1.94652V1.81527C8.1661 1.60352 8.1661 1.36843 8.18885 1.16952C7.82369 1.16602 7.42877 1.16602 7.00002 1.16602C4.25019 1.16602 2.87527 1.16602 2.02069 2.02002C1.16669 2.87518 1.16669 4.24952 1.16669 6.99935C1.16669 9.74918 1.16669 11.1241 2.02069 11.9781C2.87585 12.8327 4.25019 12.8327 7.00002 12.8327C9.74985 12.8327 11.1248 12.8327 11.9788 11.9781" fill="#E4E4E4"/>
<path d="M10.0071 1.4204L11.382 2.61215C12.3288 3.43232 12.8018 3.84299 12.8018 4.37557C12.8018 4.90815 12.3288 5.31824 11.382 6.13899L10.0071 7.33074C9.59059 7.69124 9.38292 7.87149 9.21201 7.7939C9.04167 7.71574 9.04167 7.4404 9.04167 6.88974V6.00074C7.80267 6.00074 6.49017 6.4079 5.57084 7.12657C5.09017 7.50224 4.85042 7.69007 4.74776 7.6294C4.64509 7.56932 4.68534 7.30682 4.76642 6.7824C5.25934 3.59624 7.46726 2.7504 9.04167 2.7504V1.8614C9.04167 1.31074 9.04167 1.0354 9.21201 0.957236C9.38292 0.879652 9.59117 1.0599 10.0071 1.4204Z" fill="#363636"/>
</svg>
