<svg width="14" height="14" viewBox="0 0 14 14" fill="none" xmlns="http://www.w3.org/2000/svg">
<path d="M2.02065 11.9787C1.16665 11.1235 1.16665 9.74918 1.16665 6.99935C1.16665 6.64877 1.16665 6.31977 1.1684 6.01235C1.40756 6.24685 1.69456 6.49535 2.00198 6.76135L3.45331 8.02018C3.63065 8.17418 3.82956 8.34685 4.00923 8.46235C4.1854 8.57552 4.6334 8.82518 5.15081 8.58893C5.66823 8.35268 5.77265 7.85043 5.8024 7.64393C5.83331 7.43685 5.83331 7.18135 5.83331 6.95093C6.60915 7.0851 7.34765 7.39077 7.89073 7.81427L7.9199 7.8376C8.13456 8.0056 8.3399 8.1666 8.50556 8.27393C8.61845 8.34979 8.74033 8.41132 8.8684 8.4571C9.00548 8.50377 9.34498 8.58835 9.69498 8.38302C9.8123 8.31306 9.91393 8.21966 9.99352 8.10865C10.0731 7.99764 10.129 7.87141 10.1576 7.73785C10.1855 7.60445 10.1949 7.46783 10.1856 7.33185C10.1756 7.14868 10.1389 6.91418 10.1039 6.68435L10.0981 6.64702C9.82098 4.85618 9.04106 3.63352 8.02723 2.8711C7.38143 2.39045 6.6289 2.07322 5.8339 1.94652V1.81527C5.8339 1.60352 5.8339 1.36843 5.81115 1.16952C6.17631 1.16602 6.57123 1.16602 6.99998 1.16602C9.74981 1.16602 11.1247 1.16602 11.9793 2.02002C12.8333 2.87518 12.8333 4.24952 12.8333 6.99935C12.8333 9.74918 12.8333 11.1241 11.9793 11.9781C11.1241 12.8327 9.74981 12.8327 6.99998 12.8327C4.25015 12.8327 2.87523 12.8327 2.02123 11.9781" fill="#E4E4E4"/>
<path d="M3.99291 1.4204L2.61799 2.61215C1.67124 3.43232 1.19816 3.84299 1.19816 4.37557C1.19816 4.90815 1.67124 5.31824 2.61799 6.13899L3.99291 7.33074C4.40941 7.69124 4.61708 7.87149 4.78799 7.7939C4.95833 7.71574 4.95833 7.4404 4.95833 6.88974V6.00074C6.19733 6.00074 7.50983 6.4079 8.42916 7.12657C8.90983 7.50224 9.14958 7.69007 9.25224 7.6294C9.35491 7.56932 9.31466 7.30682 9.23358 6.7824C8.74066 3.59624 6.53274 2.7504 4.95833 2.7504V1.8614C4.95833 1.31074 4.95833 1.0354 4.78799 0.957236C4.61708 0.879652 4.40883 1.0599 3.99291 1.4204Z" fill="#363636"/>
</svg>
