<svg width="12" height="12" viewBox="0 0 12 12" fill="none" xmlns="http://www.w3.org/2000/svg">
<g clip-path="url(#clip0_235_712)">
<path d="M3.08335 1.33268C3.08335 1.02326 3.20627 0.726517 3.42506 0.507724C3.64385 0.288932 3.9406 0.166016 4.25002 0.166016H7.75002C8.05944 0.166016 8.35618 0.288932 8.57498 0.507724C8.79377 0.726517 8.91669 1.02326 8.91669 1.33268V2.49935H11.25C11.4047 2.49935 11.5531 2.56081 11.6625 2.6702C11.7719 2.7796 11.8334 2.92797 11.8334 3.08268C11.8334 3.23739 11.7719 3.38576 11.6625 3.49516C11.5531 3.60456 11.4047 3.66602 11.25 3.66602H10.6264L10.1207 10.7488C10.0997 11.0432 9.96803 11.3187 9.75209 11.5198C9.53615 11.7209 9.25202 11.8327 8.95694 11.8327H3.04252C2.74744 11.8327 2.46331 11.7209 2.24737 11.5198C2.03143 11.3187 1.89972 11.0432 1.87877 10.7488L1.37419 3.66602H0.75002C0.595311 3.66602 0.446938 3.60456 0.337541 3.49516C0.228145 3.38576 0.166687 3.23739 0.166687 3.08268C0.166687 2.92797 0.228145 2.7796 0.337541 2.6702C0.446938 2.56081 0.595311 2.49935 0.75002 2.49935H3.08335V1.33268ZM4.25002 2.49935H7.75002V1.33268H4.25002V2.49935ZM2.54319 3.66602L3.0431 10.666H8.95752L9.45744 3.66602H2.54319ZM4.83335 4.83268C4.98806 4.83268 5.13644 4.89414 5.24583 5.00354C5.35523 5.11293 5.41669 5.26131 5.41669 5.41602V8.91602C5.41669 9.07072 5.35523 9.2191 5.24583 9.3285C5.13644 9.43789 4.98806 9.49935 4.83335 9.49935C4.67864 9.49935 4.53027 9.43789 4.42087 9.3285C4.31148 9.2191 4.25002 9.07072 4.25002 8.91602V5.41602C4.25002 5.26131 4.31148 5.11293 4.42087 5.00354C4.53027 4.89414 4.67864 4.83268 4.83335 4.83268ZM7.16669 4.83268C7.3214 4.83268 7.46977 4.89414 7.57917 5.00354C7.68856 5.11293 7.75002 5.26131 7.75002 5.41602V8.91602C7.75002 9.07072 7.68856 9.2191 7.57917 9.3285C7.46977 9.43789 7.3214 9.49935 7.16669 9.49935C7.01198 9.49935 6.8636 9.43789 6.75421 9.3285C6.64481 9.2191 6.58335 9.07072 6.58335 8.91602V5.41602C6.58335 5.26131 6.64481 5.11293 6.75421 5.00354C6.8636 4.89414 7.01198 4.83268 7.16669 4.83268Z" fill="#363636"/>
</g>
<defs>
<clipPath id="clip0_235_712">
<rect width="12" height="12" fill="white"/>
</clipPath>
</defs>
</svg>
