<svg width="158" height="25" viewBox="0 0 158 25" fill="none" xmlns="http://www.w3.org/2000/svg">
<line x1="1" y1="15.1602" x2="2" y2="9.16006" stroke="#8B8B8B" stroke-width="2" stroke-linecap="round"/>
<line x1="6" y1="15.1602" x2="7" y2="9.16006" stroke="#8B8B8B" stroke-width="2" stroke-linecap="round"/>
<line x1="11" y1="15.1602" x2="12" y2="9.16006" stroke="#8B8B8B" stroke-width="2" stroke-linecap="round"/>
<line x1="16" y1="15.1602" x2="17" y2="9.16006" stroke="#8B8B8B" stroke-width="2" stroke-linecap="round"/>
<line x1="21" y1="15.1602" x2="22" y2="9.16006" stroke="#8B8B8B" stroke-width="2" stroke-linecap="round"/>
<line x1="26" y1="15.1602" x2="27" y2="9.16006" stroke="#8B8B8B" stroke-width="2" stroke-linecap="round"/>
<line x1="31" y1="15.1602" x2="32" y2="9.16006" stroke="#8B8B8B" stroke-width="2" stroke-linecap="round"/>
<line x1="36" y1="15.1602" x2="37" y2="9.16006" stroke="#8B8B8B" stroke-width="2" stroke-linecap="round"/>
<line x1="41" y1="15.1602" x2="42" y2="9.16006" stroke="#8B8B8B" stroke-width="2" stroke-linecap="round"/>
<line x1="46" y1="22.5762" x2="47" y2="1.74363" stroke="#8B8B8B" stroke-width="2" stroke-linecap="round"/>
<line x1="51" y1="15.1602" x2="52" y2="9.16006" stroke="#8B8B8B" stroke-width="2" stroke-linecap="round"/>
<line x1="56" y1="15.1602" x2="57" y2="9.16006" stroke="#8B8B8B" stroke-width="2" stroke-linecap="round"/>
<line x1="61" y1="15.1602" x2="62" y2="9.16006" stroke="#8B8B8B" stroke-width="2" stroke-linecap="round"/>
<line x1="66" y1="17.7832" x2="67" y2="6.53819" stroke="#8B8B8B" stroke-width="2" stroke-linecap="round"/>
<line x1="71" y1="21.082" x2="72" y2="3.23795" stroke="#8B8B8B" stroke-width="2" stroke-linecap="round"/>
<line x1="76" y1="15.1602" x2="77" y2="9.16006" stroke="#8B8B8B" stroke-width="2" stroke-linecap="round"/>
<line x1="81" y1="15.1602" x2="82" y2="9.16006" stroke="#8B8B8B" stroke-width="2" stroke-linecap="round"/>
<line x1="86" y1="23.3203" x2="87" y2="0.999878" stroke="#8B8B8B" stroke-width="2" stroke-linecap="round"/>
<line x1="91" y1="15.1602" x2="92" y2="9.16006" stroke="#8B8B8B" stroke-width="2" stroke-linecap="round"/>
<line x1="96" y1="15.1602" x2="97" y2="9.16006" stroke="#8B8B8B" stroke-width="2" stroke-linecap="round"/>
<line x1="101" y1="15.1602" x2="102" y2="9.16006" stroke="#8B8B8B" stroke-width="2" stroke-linecap="round"/>
<line x1="106" y1="17.7383" x2="107" y2="6.58353" stroke="#8B8B8B" stroke-width="2" stroke-linecap="round"/>
<line x1="111" y1="23.1465" x2="112" y2="1.17318" stroke="#8B8B8B" stroke-width="2" stroke-linecap="round"/>
<line x1="116" y1="15.1602" x2="117" y2="9.16006" stroke="#8B8B8B" stroke-width="2" stroke-linecap="round"/>
<line x1="121" y1="15.1602" x2="122" y2="9.16006" stroke="#8B8B8B" stroke-width="2" stroke-linecap="round"/>
<line x1="126" y1="15.1602" x2="127" y2="9.16006" stroke="#8B8B8B" stroke-width="2" stroke-linecap="round"/>
<line x1="131" y1="15.1602" x2="132" y2="9.16006" stroke="#8B8B8B" stroke-width="2" stroke-linecap="round"/>
<line x1="136" y1="15.1602" x2="137" y2="9.16006" stroke="#8B8B8B" stroke-width="2" stroke-linecap="round"/>
<line x1="141" y1="15.1602" x2="142" y2="9.16006" stroke="#8B8B8B" stroke-width="2" stroke-linecap="round"/>
<line x1="146" y1="15.1602" x2="147" y2="9.16006" stroke="#8B8B8B" stroke-width="2" stroke-linecap="round"/>
<line x1="151" y1="15.1602" x2="152" y2="9.16006" stroke="#8B8B8B" stroke-width="2" stroke-linecap="round"/>
<line x1="156" y1="15.1602" x2="157" y2="9.16006" stroke="#8B8B8B" stroke-width="2" stroke-linecap="round"/>
</svg>
