<svg width="30" height="30" viewBox="0 0 30 30" fill="none" xmlns="http://www.w3.org/2000/svg">
<path d="M7.5375 15.0375L10.0375 19.375L6.875 23.35L2.5 15.775L7.5375 15.0375ZM21.25 22.5V19.1125C22.35 18.625 23.125 17.5375 23.125 16.25C23.125 15.5375 22.875 14.875 22.4625 14.375L24.925 12.9375C26.1875 12.2 26.625 10.5875 25.8875 9.32501L24.1625 6.32501C23.8108 5.71877 23.2337 5.27611 22.5571 5.09348C21.8804 4.91085 21.159 5.00306 20.55 5.35001L10.3875 11.25C9.2 11.9125 8.7875 13.4375 9.475 14.6375L11.35 17.8875C12.0375 19.075 13.575 19.4875 14.7625 18.8L17.1125 17.45C17.425 18.1875 18.0125 18.7875 18.75 19.1125V22.5C18.75 23.875 19.875 25 21.25 25H27.5V22.5H21.25Z" fill="#4E4E4E"/>
</svg>
